<svg xmlns="http://www.w3.org/2000/svg" width="128" height="48" viewBox="0 0 128 48">
  <defs>
    <linearGradient id="bg" x1="0" y1="0" x2="0" y2="1">
      <stop offset="0" stop-color="#2f3a44"/>
      <stop offset="1" stop-color="#1e242b"/>
    </linearGradient>
  </defs>
  <rect x="1" y="1" width="126" height="46" rx="8" fill="url(#bg)" stroke="#0f1419" stroke-width="2"/>
  <!-- Gears -->
  <circle cx="26" cy="26" r="9" fill="#e7f1ef"/>
  <circle cx="26" cy="26" r="4" fill="#1e242b"/>
  <rect x="24" y="14" width="4" height="6" fill="#e7f1ef"/>
  <rect x="24" y="32" width="4" height="6" fill="#e7f1ef"/>
  <rect x="16" y="24" width="6" height="4" fill="#e7f1ef"/>
  <rect x="30" y="24" width="6" height="4" fill="#e7f1ef"/>
  <rect x="18" y="17" width="4" height="4" transform="rotate(-45 20 19)" fill="#e7f1ef"/>
  <rect x="30" y="17" width="4" height="4" transform="rotate(45 32 19)" fill="#e7f1ef"/>
  <rect x="18" y="31" width="4" height="4" transform="rotate(45 20 33)" fill="#e7f1ef"/>
  <rect x="30" y="31" width="4" height="4" transform="rotate(-45 32 33)" fill="#e7f1ef"/>
  <text x="54" y="30" font-family="Arial, sans-serif" font-size="12" fill="#e7f1ef">Painel</text>
</svg>
